<svg xmlns="http://www.w3.org/2000/svg" width="1600" height="1200" viewBox="0 0 1600 1200">
  <defs>
    <linearGradient id="sky" x1="0" y1="0" x2="1" y2="1">
      <stop offset="0%" stop-color="#ffe7a8"/>
      <stop offset="100%" stop-color="#cce8ff"/>
    </linearGradient>
  </defs>
  <rect width="1600" height="1200" fill="url(#sky)"/>
  <g opacity="0.22">
    <rect x="100" y="140" width="260" height="180" rx="18" fill="#ffd166"/>
    <rect x="118" y="162" width="224" height="130" rx="10" fill="#fff9e8"/>
    <rect x="460" y="220" width="380" height="36" rx="18" fill="#8ecae6"/>
    <rect x="1120" y="130" width="320" height="52" rx="14" fill="#90be6d"/>
    <circle cx="1240" cy="390" r="130" fill="#f28482"/>
    <rect x="915" y="490" width="420" height="46" rx="14" fill="#ffb703"/>
    <rect x="210" y="470" width="140" height="420" rx="20" fill="#f94144"/>
    <rect x="245" y="490" width="70" height="380" rx="12" fill="#fff"/>
    <rect x="510" y="690" width="430" height="250" rx="18" fill="#577590"/>
    <rect x="540" y="725" width="370" height="180" rx="12" fill="#e0f4ff"/>
    <rect x="1060" y="730" width="260" height="180" rx="16" fill="#43aa8b"/>
  </g>
  <g opacity="0.35" stroke="#355070" stroke-width="6" fill="none" stroke-linecap="round">
    <path d="M140 1030q85-80 170 0t170 0 170 0 170 0 170 0 170 0 170 0"/>
  </g>
</svg>
